<svg xmlns="http://www.w3.org/2000/svg" width="1200" height="630" viewBox="0 0 1200 630">
  <defs>
    <radialGradient id="bg" cx="50%" cy="44%" r="72%">
      <stop offset="0%" stop-color="#d8efff" />
      <stop offset="58%" stop-color="#9bc9ff" />
      <stop offset="100%" stop-color="#78aff4" />
    </radialGradient>
    <linearGradient id="bubble" x1="0" y1="0" x2="0" y2="1">
      <stop offset="0%" stop-color="#ffffff" />
      <stop offset="100%" stop-color="#f4f9ff" />
    </linearGradient>
    <linearGradient id="kuruY" x1="0" y1="0" x2="0" y2="1">
      <stop offset="0%" stop-color="#ffe761" />
      <stop offset="100%" stop-color="#ffb703" />
    </linearGradient>
    <linearGradient id="kuruB" x1="0" y1="0" x2="0" y2="1">
      <stop offset="0%" stop-color="#8ad0ff" />
      <stop offset="100%" stop-color="#2f8fdd" />
    </linearGradient>
    <linearGradient id="kuruP" x1="0" y1="0" x2="0" y2="1">
      <stop offset="0%" stop-color="#ff9cc5" />
      <stop offset="100%" stop-color="#ff5d8f" />
    </linearGradient>
    <linearGradient id="kuruG" x1="0" y1="0" x2="0" y2="1">
      <stop offset="0%" stop-color="#b5f57d" />
      <stop offset="100%" stop-color="#43bf53" />
    </linearGradient>
    <filter id="softShadow" x="-20%" y="-20%" width="140%" height="140%">
      <feDropShadow dx="0" dy="12" stdDeviation="16" flood-color="#2b5fa7" flood-opacity="0.28" />
    </filter>
    <filter id="glow" x="-30%" y="-30%" width="160%" height="160%">
      <feDropShadow dx="0" dy="0" stdDeviation="8" flood-color="#ffffff" flood-opacity="0.5" />
    </filter>
  </defs>

  <rect width="1200" height="630" fill="url(#bg)" />

  <g opacity="0.9">
    <ellipse cx="1020" cy="88" rx="92" ry="32" fill="#ffffff" fill-opacity="0.65" />
    <ellipse cx="936" cy="84" rx="30" ry="22" fill="#ffffff" fill-opacity="0.65" />
    <ellipse cx="1092" cy="84" rx="36" ry="24" fill="#ffffff" fill-opacity="0.65" />
    <ellipse cx="194" cy="538" rx="112" ry="38" fill="#ffffff" fill-opacity="0.72" />
    <ellipse cx="1060" cy="550" rx="136" ry="44" fill="#ffffff" fill-opacity="0.72" />
  </g>

  <g filter="url(#softShadow)">
    <ellipse cx="600" cy="330" rx="398" ry="222" fill="url(#bubble)" />
    <ellipse cx="600" cy="450" rx="168" ry="38" fill="#f4f9ff" />
  </g>

  <g transform="translate(360 80)" filter="url(#softShadow)">
    <circle cx="120" cy="98" r="90" fill="#fffaf2" />
    <circle cx="90" cy="84" r="15" fill="#2f2d2a" />
    <circle cx="150" cy="84" r="15" fill="#2f2d2a" />
    <circle cx="84" cy="80" r="5" fill="#ffffff" />
    <circle cx="144" cy="80" r="5" fill="#ffffff" />
    <ellipse cx="120" cy="130" rx="13" ry="10" fill="#ff5a50" />
    <circle cx="74" cy="116" r="14" fill="#ffd3c8" />
    <circle cx="166" cy="116" r="14" fill="#ffd3c8" />
  </g>

  <g transform="translate(568 80)" filter="url(#softShadow)">
    <circle cx="120" cy="98" r="90" fill="#ffdce7" />
    <circle cx="90" cy="84" r="15" fill="#2f2d2a" />
    <circle cx="150" cy="84" r="15" fill="#2f2d2a" />
    <circle cx="84" cy="80" r="5" fill="#ffffff" />
    <circle cx="144" cy="80" r="5" fill="#ffffff" />
    <ellipse cx="120" cy="130" rx="13" ry="10" fill="#ff5a50" />
    <circle cx="74" cy="116" r="14" fill="#ffc2cf" />
    <circle cx="166" cy="116" r="14" fill="#ffc2cf" />
  </g>

  <g fill="#fff8b2" filter="url(#glow)">
    <path d="M262 184 271 204 293 207 276 221 281 242 262 232 244 242 248 221 231 207 253 204z" />
    <path d="M918 170 926 188 946 191 931 205 935 224 918 214 901 224 905 205 890 191 910 188z" />
    <path d="M1002 300 1009 315 1026 317 1013 328 1017 344 1002 336 988 344 991 328 978 317 995 315z" />
  </g>

  <g font-family="Pretendard, Apple SD Gothic Neo, Noto Sans KR, sans-serif" text-anchor="middle">
    <text x="600" y="286" font-size="58" font-weight="900" fill="#ff9f1c" filter="url(#glow)">재미있는 테스트세상</text>

    <text x="460" y="384" font-size="132" font-weight="900" fill="url(#kuruY)" stroke="#e19700" stroke-width="8">k</text>
    <text x="548" y="384" font-size="132" font-weight="900" fill="url(#kuruB)" stroke="#2a79bf" stroke-width="8">u</text>
    <text x="642" y="384" font-size="132" font-weight="900" fill="url(#kuruP)" stroke="#dc4f7d" stroke-width="8">r</text>
    <text x="746" y="384" font-size="132" font-weight="900" fill="url(#kuruG)" stroke="#3ca447" stroke-width="8">u</text>

    <text x="600" y="464" font-size="74" font-weight="900" fill="#1f65c7">해볼까?</text>
  </g>
</svg>
