<?xml version="1.0" encoding="UTF-8"?>
<svg xmlns="http://www.w3.org/2000/svg" width="1200" height="630" viewBox="0 0 1200 630">
  <defs>
    <linearGradient id="bg" x1="0" y1="0" x2="1" y2="1">
      <stop offset="0%" stop-color="#e8d8c4" />
      <stop offset="100%" stop-color="#cab597" />
    </linearGradient>
    <filter id="soft">
      <feGaussianBlur stdDeviation="12" />
    </filter>
  </defs>
  <rect width="1200" height="630" fill="url(#bg)" />
  <ellipse cx="900" cy="520" rx="210" ry="70" fill="#ffffff" opacity="0.45" filter="url(#soft)" />

  <g transform="translate(80,38)">
    <path d="M220,450 C410,500 740,510 900,430 C980,390 980,320 900,290 C760,235 500,250 320,300 C210,330 170,405 220,450Z" fill="#baa47c" stroke="#7a6f5d" stroke-width="8" />
    <ellipse cx="560" cy="378" rx="250" ry="130" fill="#e0d1b3" opacity="0.88" />
    <circle cx="666" cy="394" r="16" fill="#b58d62" opacity="0.78" />
    <circle cx="737" cy="247" r="11" fill="#b58d62" opacity="0.78" />
    <circle cx="498" cy="300" r="18" fill="#b58d62" opacity="0.78" />
    <circle cx="569" cy="353" r="13" fill="#b58d62" opacity="0.78" />
    <circle cx="640" cy="406" r="20" fill="#b58d62" opacity="0.78" />
    <circle cx="711" cy="259" r="15" fill="#b58d62" opacity="0.78" />
    <circle cx="472" cy="312" r="10" fill="#b58d62" opacity="0.78" />
    <circle cx="543" cy="365" r="17" fill="#b58d62" opacity="0.78" />
    <circle cx="614" cy="418" r="12" fill="#b58d62" opacity="0.78" />
    <circle cx="685" cy="271" r="19" fill="#b58d62" opacity="0.78" />

    <ellipse cx="920" cy="282" rx="130" ry="105" fill="#baa47c" stroke="#7a6f5d" stroke-width="8" />
    <ellipse cx="875" cy="275" rx="34" ry="42" fill="#ffffff" />
    <ellipse cx="963" cy="278" rx="34" ry="42" fill="#ffffff" />
    <circle cx="878" cy="286" r="13" fill="#222831" />
    <circle cx="966" cy="288" r="13" fill="#222831" />
    <circle cx="883" cy="281" r="4.5" fill="#ffffff" />
    <circle cx="971" cy="283" r="4.5" fill="#ffffff" />
    <ellipse cx="850" cy="315" rx="20" ry="13" fill="#bd9270" opacity="0.75" />
    <ellipse cx="995" cy="318" rx="20" ry="13" fill="#bd9270" opacity="0.75" />
    <path d="M902,317 Q920,330 940,317" stroke="#554449" stroke-width="5.5" stroke-linecap="round" fill="none" />
    <path d="M910,237 q20,-18 42,-6" stroke="#7a6f5d" stroke-width="6" stroke-linecap="round" fill="none" />
    <path d="M834,237 q18,-18 40,-8" stroke="#7a6f5d" stroke-width="6" stroke-linecap="round" fill="none" />

    <path d="M225,446 C120,470 80,515 110,548 C130,570 180,566 250,528" fill="none" stroke="#7a6f5d" stroke-width="10" stroke-linecap="round" />
  </g>

  <text x="68" y="82" font-size="40" font-family="Pretendard, Apple SD Gothic Neo, sans-serif" fill="#294332" font-weight="700">나와 닮은 도마뱀</text>
  <text x="68" y="138" font-size="56" font-family="Pretendard, Apple SD Gothic Neo, sans-serif" fill="#16251d" font-weight="800">비어디드 드래곤</text>
  <text x="70" y="190" font-size="30" font-family="Pretendard, Apple SD Gothic Neo, sans-serif" fill="#355949">비어디드 드래곤 · 베이직</text>
</svg>
