<?xml version="1.0" encoding="UTF-8"?>
<svg xmlns="http://www.w3.org/2000/svg" width="1200" height="630" viewBox="0 0 1200 630">
  <defs>
    <linearGradient id="bg" x1="0" y1="0" x2="1" y2="1">
      <stop offset="0%" stop-color="#ded0c0" />
      <stop offset="100%" stop-color="#b2a28e" />
    </linearGradient>
    <filter id="soft">
      <feGaussianBlur stdDeviation="12" />
    </filter>
  </defs>
  <rect width="1200" height="630" fill="url(#bg)" />
  <ellipse cx="900" cy="520" rx="210" ry="70" fill="#ffffff" opacity="0.45" filter="url(#soft)" />

  <g transform="translate(80,38)">
    <path d="M220,450 C410,500 740,510 900,430 C980,390 980,320 900,290 C760,235 500,250 320,300 C210,330 170,405 220,450Z" fill="#9e8d71" stroke="#686056" stroke-width="8" />
    <ellipse cx="560" cy="378" rx="250" ry="130" fill="#d2c6ad" opacity="0.88" />
    <circle cx="631" cy="339" r="19" fill="#957355" opacity="0.78" />
    <circle cx="702" cy="392" r="14" fill="#957355" opacity="0.78" />
    <circle cx="773" cy="245" r="21" fill="#957355" opacity="0.78" />
    <circle cx="534" cy="298" r="16" fill="#957355" opacity="0.78" />
    <circle cx="605" cy="351" r="11" fill="#957355" opacity="0.78" />
    <circle cx="676" cy="404" r="18" fill="#957355" opacity="0.78" />
    <circle cx="747" cy="257" r="13" fill="#957355" opacity="0.78" />
    <circle cx="508" cy="310" r="20" fill="#957355" opacity="0.78" />
    <circle cx="579" cy="363" r="15" fill="#957355" opacity="0.78" />
    <circle cx="650" cy="416" r="10" fill="#957355" opacity="0.78" />

    <ellipse cx="920" cy="282" rx="130" ry="105" fill="#9e8d71" stroke="#686056" stroke-width="8" />
    <ellipse cx="875" cy="275" rx="34" ry="42" fill="#ffffff" />
    <ellipse cx="963" cy="278" rx="34" ry="42" fill="#ffffff" />
    <circle cx="878" cy="286" r="13" fill="#222831" />
    <circle cx="966" cy="288" r="13" fill="#222831" />
    <circle cx="883" cy="281" r="4.5" fill="#ffffff" />
    <circle cx="971" cy="283" r="4.5" fill="#ffffff" />
    <ellipse cx="850" cy="315" rx="20" ry="13" fill="#a17b65" opacity="0.75" />
    <ellipse cx="995" cy="318" rx="20" ry="13" fill="#a17b65" opacity="0.75" />
    <path d="M902,317 Q920,330 940,317" stroke="#554449" stroke-width="5.5" stroke-linecap="round" fill="none" />
    <path d="M910,237 q20,-18 42,-6" stroke="#686056" stroke-width="6" stroke-linecap="round" fill="none" />
    <path d="M834,237 q18,-18 40,-8" stroke="#686056" stroke-width="6" stroke-linecap="round" fill="none" />

    <path d="M225,446 C120,470 80,515 110,548 C130,570 180,566 250,528" fill="none" stroke="#686056" stroke-width="10" stroke-linecap="round" />
  </g>

  <text x="68" y="82" font-size="40" font-family="Pretendard, Apple SD Gothic Neo, sans-serif" fill="#294332" font-weight="700">나와 닮은 도마뱀</text>
  <text x="68" y="138" font-size="56" font-family="Pretendard, Apple SD Gothic Neo, sans-serif" fill="#16251d" font-weight="800">크레스티드 게코 하레퀸</text>
  <text x="70" y="190" font-size="30" font-family="Pretendard, Apple SD Gothic Neo, sans-serif" fill="#355949">크레스티드 게코 · 하레퀸</text>
</svg>
